<?xml version="1.0" encoding="UTF-8" standalone="no"?>
<svg
   xmlns:dc="http://purl.org/dc/elements/1.1/"
   xmlns:cc="http://creativecommons.org/ns#"
   xmlns:rdf="http://www.w3.org/1999/02/22-rdf-syntax-ns#"
   xmlns:svg="http://www.w3.org/2000/svg"
   xmlns="http://www.w3.org/2000/svg"
   xmlns:sodipodi="http://sodipodi.sourceforge.net/DTD/sodipodi-0.dtd"
   xmlns:inkscape="http://www.inkscape.org/namespaces/inkscape"
   inkscape:version="1.0 (4035a4fb49, 2020-05-01)"
   sodipodi:docname="email.svg"
   id="svg179"
   xml:space="preserve"
   width="100%"
   viewBox="0 0 512 512"
   version="1.1"
   style="fill-rule:evenodd;clip-rule:evenodd;stroke-linejoin:round;stroke-miterlimit:2;"
   height="100%"><metadata
     id="metadata185"><rdf:RDF><cc:Work
         rdf:about=""><dc:format>image/svg+xml</dc:format><dc:type
           rdf:resource="http://purl.org/dc/dcmitype/StillImage" /><dc:title /></cc:Work></rdf:RDF></metadata><defs
     id="defs183"><clipPath
       clipPathUnits="userSpaceOnUse"
       id="clipPath3847"><rect
         height="401.85031"
         id="rect3849"
         ry="24.940269"
         style="fill:#005cc8;fill-opacity:1;stroke:none"
         width="405.50885"
         x="192.91168"
         y="341.59683" /></clipPath><clipPath
       clipPathUnits="userSpaceOnUse"
       id="clipPath4206"><rect
         height="342.67416"
         id="rect4208"
         ry="21.83189"
         style="fill:#005ad2;fill-opacity:1;stroke:none"
         width="342.67416"
         x="275.56522"
         y="396.76877" /></clipPath><clipPath
       clipPathUnits="userSpaceOnUse"
       id="clipPath3001"><rect
         height="363.35269"
         id="rect3003"
         rx="136.19997"
         ry="143.45973"
         style="fill:#800080;fill-opacity:1;stroke:none"
         width="344.96527"
         x="271.56891"
         y="376.09024" /></clipPath></defs><sodipodi:namedview
     inkscape:current-layer="svg179"
     inkscape:window-maximized="0"
     inkscape:window-y="0"
     inkscape:window-x="0"
     inkscape:cy="357.74905"
     inkscape:cx="162.51457"
     inkscape:zoom="0.83007812"
     inkscape:snap-global="true"
     showgrid="false"
     id="namedview181"
     inkscape:window-height="1002"
     inkscape:window-width="1729"
     inkscape:pageshadow="2"
     inkscape:pageopacity="0"
     guidetolerance="10"
     gridtolerance="10"
     objecttolerance="10"
     borderopacity="1"
     bordercolor="#666666"
     pagecolor="#ffffff"
     inkscape:document-rotation="0" /><g
     inkscape:label="Layer 1"
     id="layer1"
     inkscape:groupmode="layer"><path
       sodipodi:nodetypes="sssssssss"
       id="path177"
       d="M 449.446,0 C 483.971,0 512,28.03 512,62.554 V 449.446 C 512,483.97 483.97,512 449.446,512 H 62.554 C 28.03,512 0,483.97 0,449.446 V 62.554 C 0,28.03 28.029,0 62.554,0 Z"
       style="fill-rule:evenodd;clip-rule:evenodd;stroke-linejoin:round;stroke-miterlimit:2;fill:#4b3c30;fill-opacity:1" /></g><g
     inkscape:label="top"
     id="layer2"
     inkscape:groupmode="layer" /><g
     style="fill-opacity:1;fill:#fcf8e8"
     id="layer1-0"
     transform="translate(-636.56142,-795.73841)"><path
       style="clip-rule:evenodd;fill:#fcf8e8;fill-rule:evenodd;stroke-linejoin:round;stroke-miterlimit:2;fill-opacity:1"
       id="path3864"
       d="m 760.20656,919.38352 h 264.70974 a 33.088722,33.088722 0 0 1 33.0887,33.08872 v 198.53226 a 33.088722,33.088722 0 0 1 -33.0887,33.0888 H 760.20656 c -18.36423,0 -33.08872,-14.89 -33.08872,-33.0888 V 952.47224 c 0,-18.36423 14.72449,-33.08872 33.08872,-33.08872 M 892.56145,1035.194 1024.9163,952.47224 H 760.20656 L 892.56145,1035.194 M 760.20656,1151.0045 H 1024.9163 V 991.68238 L 892.56145,1074.2387 760.20656,991.68238 Z" /></g></svg>
