<?xml version="1.0" encoding="UTF-8" standalone="no"?>
<svg
   xmlns:dc="http://purl.org/dc/elements/1.1/"
   xmlns:cc="http://creativecommons.org/ns#"
   xmlns:rdf="http://www.w3.org/1999/02/22-rdf-syntax-ns#"
   xmlns:svg="http://www.w3.org/2000/svg"
   xmlns="http://www.w3.org/2000/svg"
   xmlns:sodipodi="http://sodipodi.sourceforge.net/DTD/sodipodi-0.dtd"
   xmlns:inkscape="http://www.inkscape.org/namespaces/inkscape"
   height="100%"
   style="fill-rule:evenodd;clip-rule:evenodd;stroke-linejoin:round;stroke-miterlimit:2;"
   version="1.1"
   viewBox="0 0 512 512"
   width="100%"
   xml:space="preserve"
   id="svg4"
   sodipodi:docname="github.svg"
   inkscape:version="1.0 (4035a4fb49, 2020-05-01)"><metadata
     id="metadata10"><rdf:RDF><cc:Work
         rdf:about=""><dc:format>image/svg+xml</dc:format><dc:type
           rdf:resource="http://purl.org/dc/dcmitype/StillImage" /><dc:title /></cc:Work></rdf:RDF></metadata><defs
     id="defs8"><marker
       inkscape:isstock="true"
       style="overflow:visible"
       id="marker1315"
       refX="0.0"
       refY="0.0"
       orient="auto"
       inkscape:stockid="Arrow1Lstart"><path
         transform="scale(0.8) translate(12.5,0)"
         style="fill-rule:evenodd;stroke:none;stroke-width:1pt;stroke-opacity:1;fill:#4b3c30;fill-opacity:1"
         d="M 0.0,0.0 L 5.0,-5.0 L -12.5,0.0 L 5.0,5.0 L 0.0,0.0 z "
         id="path1313" /></marker><marker
       inkscape:isstock="true"
       style="overflow:visible"
       id="marker1305"
       refX="0.0"
       refY="0.0"
       orient="auto"
       inkscape:stockid="Arrow1Lstart"><path
         transform="scale(0.8) translate(12.5,0)"
         style="fill-rule:evenodd;stroke:#ffffff;stroke-width:1pt;stroke-opacity:1;fill:#fcf8e8;fill-opacity:1"
         d="M 0.0,0.0 L 5.0,-5.0 L -12.5,0.0 L 5.0,5.0 L 0.0,0.0 z "
         id="path1303" /></marker></defs><sodipodi:namedview
     inkscape:document-rotation="0"
     pagecolor="#ffffff"
     bordercolor="#666666"
     borderopacity="1"
     objecttolerance="10"
     gridtolerance="10"
     guidetolerance="10"
     inkscape:pageopacity="0"
     inkscape:pageshadow="2"
     inkscape:window-width="1920"
     inkscape:window-height="1018"
     id="namedview6"
     showgrid="false"
     inkscape:zoom="0.83007813"
     inkscape:cx="494.32854"
     inkscape:cy="302.08534"
     inkscape:window-x="-8"
     inkscape:window-y="-8"
     inkscape:window-maximized="1"
     inkscape:current-layer="layer2" /><g
     id="g854"
     transform="translate(610.36316,79.839025)"><g
       id="_x37_1-github"
       transform="translate(-16,-16)" /><g
       id="Layer_1"
       transform="translate(-16,-16)" /></g><g
     inkscape:groupmode="layer"
     id="layer1"
     inkscape:label="Layer 1"><path
       style="clip-rule:evenodd;fill-rule:evenodd;stroke-linejoin:round;stroke-miterlimit:2;marker-end:url(#marker1315);fill:#4b3c30;fill-opacity:1"
       d="M 449.446,0 C 483.971,0 512,28.03 512,62.554 V 449.446 C 512,483.97 483.97,512 449.446,512 H 62.554 C 28.03,512 -1.9286261e-8,483.97 -1.9286261e-8,449.446 V 62.554 C -1.9286261e-8,28.03 28.029,0 62.554,0 Z"
       id="path2"
       sodipodi:nodetypes="sssssssss" /></g><g
     inkscape:groupmode="layer"
     id="layer2"
     inkscape:label="Layer 2"><path
       style="fill:#fcf8e8;stroke:#ffffff;stroke-width:0;stroke-miterlimit:2;stroke-dasharray:none;marker-end:url(#marker1305);fill-opacity:1"
       d="m 223.73293,448.55538 c -0.39106,-0.39106 -0.71102,-12.20548 -0.71102,-26.25428 v -25.54326 l -2.39969,0.68462 c -1.31982,0.37653 -9.14305,0.98193 -17.38494,1.3453 -12.08893,0.53298 -16.58003,0.30589 -23.23627,-1.17499 -19.44751,-4.32667 -36.07566,-16.99394 -45.50205,-34.66332 -8.58797,-16.09781 -27.65634,-43.12226 -33.86092,-47.98906 -8.079177,-6.3372 -7.347433,-8.62151 2.75354,-8.59584 6.57062,0.0167 15.13312,2.36441 20.72496,5.68248 6.51727,3.8672 11.96765,9.58362 18.97527,19.9015 7.51167,11.06004 13.40768,17.18637 21.76014,22.61018 12.88152,8.36483 30.65393,10.92823 47.83366,6.8993 9.60482,-2.2525 9.31051,-1.8505 11.84418,-16.17791 1.18132,-6.68016 2.98671,-12.12481 5.93765,-17.90662 2.8743,-5.63161 3.81818,-8.44119 2.93008,-8.7217 -0.72057,-0.22761 -6.30451,-1.44667 -12.40874,-2.70902 -47.61426,-9.84669 -77.23122,-35.79866 -87.19508,-76.40507 -2.58288,-10.52618 -2.57826,-48.55291 0.008,-65.28323 3.27576,-21.19097 8.08594,-33.02332 18.19876,-44.76636 2.69332,-3.12749 4.89696,-6.00864 4.89696,-6.40255 0,-0.39391 -0.97908,-4.07423 -2.17572,-8.17849 -4.61712,-15.835811 -4.57724,-30.096399 0.13296,-47.552655 l 2.32614,-8.620802 3.85778,0.70339 c 5.80396,1.058237 18.02965,7.311944 24.80916,12.690428 5.56006,4.411032 15.44779,15.089163 20.71623,22.372247 l 2.20616,3.04978 5.79279,-3.257563 c 11.7278,-6.595098 31.52989,-9.766474 61.02755,-9.773784 25.50773,-0.0063 43.55525,2.777391 56.42747,8.703565 l 7.14268,3.288374 14.18784,-14.38906 c 12.20165,-12.374682 15.30766,-14.925783 22.18681,-18.222972 4.39942,-2.108651 9.70531,-4.127714 11.79088,-4.486806 3.38893,-0.583504 3.93363,-0.341916 5.12511,2.273089 5.55297,12.187438 7.00492,33.891925 3.21034,47.989559 -3.91942,14.56137 -3.95471,14.22423 2.22874,21.2904 6.21976,7.10766 12.03305,18.24455 14.44532,27.67377 5.1946,20.305 6.15691,70.18041 1.6565,85.85535 -10.79904,37.6132 -43.08035,64.1034 -87.86509,72.10253 -5.3812,0.96114 -10.34724,1.89993 -11.03565,2.08617 -0.79542,0.21521 0.28579,3.37507 2.96628,8.66897 7.17873,14.17782 7.61273,18.1146 7.85522,71.25536 0.11779,25.80994 -0.20437,47.76705 -0.7159,48.79358 -0.86592,1.7377 -4.37211,1.86642 -50.84151,1.86642 -27.45129,0 -50.23141,-0.31996 -50.62246,-0.71102 z"
       id="path949" /></g></svg>
