<?xml version="1.0" encoding="UTF-8" standalone="no"?>
<svg
   xmlns:dc="http://purl.org/dc/elements/1.1/"
   xmlns:cc="http://creativecommons.org/ns#"
   xmlns:rdf="http://www.w3.org/1999/02/22-rdf-syntax-ns#"
   xmlns:svg="http://www.w3.org/2000/svg"
   xmlns="http://www.w3.org/2000/svg"
   xmlns:sodipodi="http://sodipodi.sourceforge.net/DTD/sodipodi-0.dtd"
   xmlns:inkscape="http://www.inkscape.org/namespaces/inkscape"
   inkscape:version="1.0 (4035a4fb49, 2020-05-01)"
   sodipodi:docname="linkedIn.svg"
   id="svg4"
   xml:space="preserve"
   width="100%"
   viewBox="0 0 512 512"
   version="1.1"
   style="fill-rule:evenodd;clip-rule:evenodd;stroke-linejoin:round;stroke-miterlimit:2;"
   height="100%"><metadata
   id="metadata10"><rdf:RDF><cc:Work
       rdf:about=""><dc:format>image/svg+xml</dc:format><dc:type
         rdf:resource="http://purl.org/dc/dcmitype/StillImage" /></cc:Work></rdf:RDF></metadata><defs
   id="defs8" /><sodipodi:namedview
   inkscape:current-layer="svg4"
   inkscape:window-maximized="0"
   inkscape:window-y="0"
   inkscape:window-x="0"
   inkscape:cy="395.50839"
   inkscape:cx="244.37586"
   inkscape:zoom="0.83007813"
   showgrid="false"
   id="namedview6"
   inkscape:window-height="1002"
   inkscape:window-width="1329"
   inkscape:pageshadow="2"
   inkscape:pageopacity="0"
   guidetolerance="10"
   gridtolerance="10"
   objecttolerance="10"
   borderopacity="1"
   bordercolor="#666666"
   pagecolor="#ffffff" />
    <path
   style="fill-opacity:1;fill:#4b3c30"
   id="path2"
   d="M449.446,0c34.525,0 62.554,28.03 62.554,62.554l0,386.892c0,34.524 -28.03,62.554 -62.554,62.554l-386.892,0c-34.524,0 -62.554,-28.03 -62.554,-62.554l0,-386.892c0,-34.524 28.029,-62.554 62.554,-62.554l386.892,0Zm-288.985,423.278l0,-225.717l-75.04,0l0,225.717l75.04,0Zm270.539,0l0,-129.439c0,-69.333 -37.018,-101.586 -86.381,-101.586c-39.804,0 -57.634,21.891 -67.617,37.266l0,-31.958l-75.021,0c0.995,21.181 0,225.717 0,225.717l75.02,0l0,-126.056c0,-6.748 0.486,-13.492 2.474,-18.315c5.414,-13.475 17.767,-27.434 38.494,-27.434c27.135,0 38.007,20.707 38.007,51.037l0,120.768l75.024,0Zm-307.552,-334.556c-25.674,0 -42.448,16.879 -42.448,39.002c0,21.658 16.264,39.002 41.455,39.002l0.484,0c26.165,0 42.452,-17.344 42.452,-39.002c-0.485,-22.092 -16.241,-38.954 -41.943,-39.002Z" />
</svg>
