<?xml version="1.0" encoding="UTF-8" standalone="no"?>
<svg
   xmlns:dc="http://purl.org/dc/elements/1.1/"
   xmlns:cc="http://creativecommons.org/ns#"
   xmlns:rdf="http://www.w3.org/1999/02/22-rdf-syntax-ns#"
   xmlns:svg="http://www.w3.org/2000/svg"
   xmlns="http://www.w3.org/2000/svg"
   xmlns:sodipodi="http://sodipodi.sourceforge.net/DTD/sodipodi-0.dtd"
   xmlns:inkscape="http://www.inkscape.org/namespaces/inkscape"
   height="100%"
   style="fill-rule:evenodd;clip-rule:evenodd;stroke-linejoin:round;stroke-miterlimit:2;"
   version="1.1"
   viewBox="0 0 512 512"
   width="100%"
   xml:space="preserve"
   id="svg179"
   sodipodi:docname="location.svg"
   inkscape:version="1.0 (4035a4fb49, 2020-05-01)"><metadata
     id="metadata185"><rdf:RDF><cc:Work
         rdf:about=""><dc:format>image/svg+xml</dc:format><dc:type
           rdf:resource="http://purl.org/dc/dcmitype/StillImage" /><dc:title /></cc:Work></rdf:RDF></metadata><defs
     id="defs183" /><sodipodi:namedview
     inkscape:document-rotation="0"
     pagecolor="#ffffff"
     bordercolor="#666666"
     borderopacity="1"
     objecttolerance="10"
     gridtolerance="10"
     guidetolerance="10"
     inkscape:pageopacity="0"
     inkscape:pageshadow="2"
     inkscape:window-width="1729"
     inkscape:window-height="1002"
     id="namedview181"
     showgrid="false"
     inkscape:snap-global="true"
     inkscape:zoom="1.1739077"
     inkscape:cx="16.162469"
     inkscape:cy="386.18961"
     inkscape:window-x="0"
     inkscape:window-y="0"
     inkscape:window-maximized="0"
     inkscape:current-layer="layer2" /><g
     inkscape:groupmode="layer"
     id="layer1"
     inkscape:label="Layer 1"><path
       style="fill-rule:evenodd;clip-rule:evenodd;stroke-linejoin:round;stroke-miterlimit:2;fill:#4b3c30;fill-opacity:1"
       d="M 449.446,0 C 483.971,0 512,28.03 512,62.554 V 449.446 C 512,483.97 483.97,512 449.446,512 H 62.554 C 28.03,512 0,483.97 0,449.446 V 62.554 C 0,28.03 28.029,0 62.554,0 Z"
       id="path177"
       sodipodi:nodetypes="sssssssss" /></g><g
     inkscape:groupmode="layer"
     id="layer2"
     inkscape:label="top"><g
       id="g1282"
       transform="translate(-2.38311,-3.1895362)"><path
         sodipodi:nodetypes="sscccccccccsss"
         style="clip-rule:evenodd;fill-rule:evenodd;stroke:#fcf8e8;stroke-width:23.025;stroke-linejoin:round;stroke-miterlimit:2;stroke-dasharray:none;stroke-dashoffset:0;stroke-opacity:1;fill:#4b3c30;fill-opacity:1"
         d="m 258.3831,71.703395 c -61.9376,0 -112.32468,49.131595 -112.32468,111.069215 0,13.72672 2.92948,28.70893 8.20254,42.18454 h -0.0837 l 0.50219,1.0044 c 0.4185,0.92069 0.837,1.84139 1.25549,2.76208 l 102.44815,217.95346 101.94597,-216.86537 0.5022,-1.00439 c 0.4185,-0.9207 0.92069,-1.84139 1.33919,-2.84578 l 0.3348,-0.9207 c 5.44047,-13.47561 8.20255,-27.70453 8.20255,-42.10084 0,-62.10502 -50.38709,-111.236615 -112.32471,-111.236615 z"
         id="path200" /><path
         id="path1265"
         d="m 247.65557,204.80904 c -9.82941,-4.29402 -17.4447,-15.65936 -17.4447,-26.03508 0,-10.52281 7.72356,-21.90008 17.70718,-26.08374 6.41197,-2.68695 15.87459,-2.0521 23.10307,1.55 12.02461,5.99212 17.88179,19.16269 14.16721,31.85669 -3.78907,12.9486 -13.62944,20.4248 -26.76959,20.33813 -3.93198,-0.0259 -8.77541,-0.75764 -10.76317,-1.626 z"
         style="fill:#fcf8e8;stroke:#fcf8e8;stroke-width:30.1176;stroke-miterlimit:2;stroke-dasharray:none;stroke-dashoffset:0;stroke-opacity:1;fill-opacity:1" /></g></g></svg>
